<svg width="760" height="348" viewBox="0 0 760 348" fill="none" xmlns="http://www.w3.org/2000/svg">
<path d="M203.866 104.23H255.824C262.042 104.23 267.473 105.412 272.118 107.775C276.835 110.139 280.48 113.433 283.053 117.658C285.697 121.812 287.019 126.646 287.019 132.16C287.019 137.961 285.518 143.046 282.517 147.414C279.515 151.711 275.298 155.077 269.867 157.512C264.507 159.947 258.325 161.164 251.322 161.164H224.945L213.073 196.525L251.322 195.324C259.612 195.324 266.758 196.613 272.761 199.191C278.836 201.769 283.481 205.35 286.697 209.934C289.985 214.445 291.628 219.637 291.628 225.51C291.628 231.31 290.092 236.431 287.019 240.871C283.946 245.311 279.694 248.784 274.262 251.291C268.831 253.797 228.659 255.051 221.584 255.051H192.723L180 290.001H182.547C198.984 290.001 285.935 290.607 298.656 285.021C311.377 279.435 318.431 271.773 325.649 262.033C332.938 252.294 336.547 241.157 336.476 228.625C336.547 214.947 332.331 203.56 323.827 194.465C315.394 185.298 306.493 179.676 290.342 177.6V175.881C302.634 173.661 312.604 168.433 320.25 160.197C327.969 151.962 331.792 141.685 331.721 129.367C331.792 117.766 328.648 107.31 322.287 98.0001" stroke="#30368A" stroke-width="12"/>
<path d="M60.563 66.0001H9L84.789 286H144.606L208.389 99.4561M222.286 66.0001H168.833L115.663 233.148H113.626L80.228 124.593" stroke="#30368A" stroke-width="12"/>
<path d="M420.273 288.637C405.606 288.637 393 285.637 382.455 279.637C371.97 273.576 363.879 265.152 358.182 254.364C352.545 243.515 349.727 230.94 349.727 216.637C349.727 202.273 352.545 189.697 358.182 178.909C363.879 168.061 371.97 159.637 382.455 153.637C393 147.576 405.606 144.546 420.273 144.546C434.939 144.546 447.515 147.576 458 153.637C468.545 159.637 476.636 168.061 482.273 178.909C487.97 189.697 490.818 202.273 490.818 216.637C490.818 230.94 487.97 243.515 482.273 254.364C476.636 265.152 468.545 273.576 458 279.637C447.515 285.637 434.939 288.637 420.273 288.637ZM420.545 255.091C425.879 255.091 430.394 253.455 434.091 250.182C437.788 246.909 440.606 242.364 442.545 236.546C444.545 230.727 445.545 224 445.545 216.364C445.545 208.606 444.545 201.818 442.545 196C440.606 190.182 437.788 185.637 434.091 182.364C430.394 179.091 425.879 177.455 420.545 177.455C415.03 177.455 410.364 179.091 406.545 182.364C402.788 185.637 399.909 190.182 397.909 196C395.97 201.818 395 208.606 395 216.364C395 224 395.97 230.727 397.909 236.546C399.909 242.364 402.788 246.909 406.545 250.182C410.364 253.455 415.03 255.091 420.545 255.091ZM578.773 288.637C564.106 288.637 551.5 285.637 540.955 279.637C530.47 273.576 522.379 265.152 516.682 254.364C511.045 243.515 508.227 230.94 508.227 216.637C508.227 202.273 511.045 189.697 516.682 178.909C522.379 168.061 530.47 159.637 540.955 153.637C551.5 147.576 564.106 144.546 578.773 144.546C593.439 144.546 606.015 147.576 616.5 153.637C627.045 159.637 635.136 168.061 640.773 178.909C646.47 189.697 649.318 202.273 649.318 216.637C649.318 230.94 646.47 243.515 640.773 254.364C635.136 265.152 627.045 273.576 616.5 279.637C606.015 285.637 593.439 288.637 578.773 288.637ZM579.045 255.091C584.379 255.091 588.894 253.455 592.591 250.182C596.288 246.909 599.106 242.364 601.045 236.546C603.045 230.727 604.045 224 604.045 216.364C604.045 208.606 603.045 201.818 601.045 196C599.106 190.182 596.288 185.637 592.591 182.364C588.894 179.091 584.379 177.455 579.045 177.455C573.53 177.455 568.864 179.091 565.045 182.364C561.288 185.637 558.409 190.182 556.409 196C554.47 201.818 553.5 208.606 553.5 216.364C553.5 224 554.47 230.727 556.409 236.546C558.409 242.364 561.288 246.909 565.045 250.182C568.864 253.455 573.53 255.091 579.045 255.091ZM750.909 146.364V179.091H662.818V146.364H750.909ZM681.273 112.909H725.727V242.091C725.727 244.818 726.152 247.03 727 248.727C727.909 250.364 729.212 251.546 730.909 252.273C732.606 252.94 734.636 253.273 737 253.273C738.697 253.273 740.485 253.121 742.364 252.818C744.303 252.455 745.758 252.152 746.727 251.909L753.455 284C751.333 284.606 748.333 285.364 744.455 286.273C740.636 287.182 736.061 287.758 730.727 288C720.303 288.485 711.364 287.273 703.909 284.364C696.515 281.394 690.848 276.788 686.909 270.546C683.03 264.303 681.152 256.455 681.273 247V112.909Z" fill="#30368A"/>
<mask id="mask0_49_2" style="mask-type:alpha" maskUnits="userSpaceOnUse" x="162" y="18" width="48" height="48">
<rect x="162" y="18" width="48" height="48" fill="#D9D9D9"/>
</mask>
<g mask="url(#mask0_49_2)">
</g>
<path d="M190.33 46.1864C193.198 47.3971 196.249 48 199.473 48C202.697 48 205.748 47.3971 208.617 46.1864C211.472 44.9811 213.974 43.308 216.115 41.168C218.254 39.029 219.935 36.5286 221.158 33.6751C222.387 30.807 223 27.7723 223 24.5801C223 21.3199 222.388 18.2493 221.158 15.3783C219.935 12.5266 218.264 10.0272 216.144 7.88851C214.021 5.74659 211.518 4.06452 208.646 2.8415C205.759 1.61202 202.68 1 199.42 1C196.228 1 193.193 1.61326 190.325 2.84242C187.471 4.06537 184.971 5.74647 182.832 7.88542C180.692 10.0255 179.019 12.5276 177.814 15.3834C176.603 18.2517 176 21.3026 176 24.5267C176 27.7508 176.603 30.8017 177.814 33.67C179.019 36.5257 180.692 39.0279 182.832 41.168C184.972 43.308 187.474 44.9811 190.33 46.1864ZM211.231 36.284C207.985 39.5298 204.085 41.1423 199.473 41.1423C194.862 41.1423 190.962 39.5298 187.716 36.284C184.47 33.0382 182.858 29.1381 182.858 24.5267C182.858 19.9153 184.47 16.0152 187.716 12.7694C190.962 9.52357 194.862 7.91103 199.473 7.91103C204.085 7.91103 207.985 9.52357 211.231 12.7694C214.476 16.0152 216.089 19.9153 216.089 24.5267C216.089 29.1381 214.476 33.0382 211.231 36.284Z" fill="#30368A" stroke="#30368A" stroke-width="2"/>
</svg>
